<?xml version="1.0" encoding="utf-8"?>
<!-- Generator: Adobe Illustrator 22.0.1, SVG Export Plug-In . SVG Version: 6.00 Build 0)  -->
<svg version="1.1" id="Layer_1" xmlns:serif="http://www.serif.com/"
	 xmlns="http://www.w3.org/2000/svg" xmlns:xlink="http://www.w3.org/1999/xlink" x="0px" y="0px" viewBox="0 0 777.5 593.8"
	 style="enable-background:new 0 0 777.5 593.8;" xml:space="preserve">
<style type="text/css">
	.st0{display:none;fill:#B54343;stroke:#000000;stroke-miterlimit:10;}
	.st1{fill:none;}
	.st2{fill:#FFFFFF;}
</style>
<rect x="1" y="0.8" class="st0" width="776" height="594"/>
<g transform="matrix(1,0,0,1,-1700,-2400)">
	<g id="logo-color" transform="matrix(1.01276,0,0,1.01685,363.159,-40.4483)">
		<path class="st1" d="M1360.4,2441.6c-2.2,0-4-1.8-4-4c-0.1-2.1,1.7-4,4-4c2.2,0,4,1.8,4,4S1362.6,2441.6,1360.4,2441.6z
			 M1448,2459.2c-2.3-0.2-3.9-2.2-3.7-4.4c0.2-2.3,2.2-3.9,4.4-3.7c2.3,0.2,3.9,2.2,3.7,4.4S1450.2,2459.4,1448,2459.2z
			 M1470.8,2564.8l16-4l8.1,12L1470.8,2564.8z M1524.7,2438.8c-0.4,1.3-1.4,2.4-2.8,2.8c-3.1,0.8-5.8-1.9-5-5
			c0.4-1.4,1.5-2.4,2.8-2.8C1522.8,2433,1525.5,2435.7,1524.7,2438.8z"/>
		<polygon class="st1" points="1470.8,2564.8 1494.9,2572.8 1486.8,2560.8 		"/>
		<path class="st1" d="M1360.4,2433.6c-2.3,0-4.1,1.9-4,4c0,2.2,1.8,4,4,4s4-1.8,4-4S1362.6,2433.6,1360.4,2433.6z"/>
		<path class="st1" d="M1448.7,2451.1c-2.3-0.2-4.2,1.5-4.4,3.7c-0.2,2.3,1.5,4.2,3.7,4.4s4.2-1.5,4.4-3.7
			S1450.9,2451.3,1448.7,2451.1z"/>
		<path class="st1" d="M1519.7,2433.8c-1.3,0.4-2.4,1.4-2.8,2.8c-0.8,3.1,1.9,5.8,5,5c1.4-0.4,2.4-1.5,2.8-2.8
			C1525.5,2435.7,1522.8,2433,1519.7,2433.8z"/>
		<g>
			<g>
				<g>
					<path class="st2" d="M1571.4,2671.5l20.6-51.1l-10.8-10.7h10.4l2.9-9.7l-64.9-43.1l-10.6-28.1h-92.7l9.1-24.2h65.9l19.8-52.5
						c6-0.2,11.4-4.1,13.1-9.7c1.4-4.5,0.7-9.2-2-12.9s-7-5.9-11.6-5.9c-0.7,0-1.4,0.1-2.1,0.1c-6.3,0.8-11.4,6.1-12,12.5
						c-0.4,4.5,1.2,8.8,4.5,11.9l-17.2,45.5h-54.3l9.1-24.2c6-0.2,11.4-4.1,13.1-9.7c1.4-4.5,0.7-9.2-2-12.9s-7-5.9-11.6-5.9
						c-0.7,0-1.4,0.1-2.1,0.1c-6.3,0.8-11.4,6.1-12,12.5c-0.4,4.5,1.2,8.8,4.5,11.9l-10.6,28h-40.8l-17.2-45.5
						c3.3-3.1,5-7.4,4.5-11.9c-0.6-6.3-5.7-11.6-12-12.5c-0.7-0.1-1.4-0.1-2.1-0.1c-4.5,0-8.8,2.2-11.5,5.8c-2.7,3.7-3.5,8.4-2.1,13
						c1.8,5.6,7,9.5,13.1,9.7l19.8,52.5h44.3l-63.3,168.2h-0.3v42h64.4l67.5,84v156.5h10.9v-160.2l-73.2-91.1h-58.7v-28.6
						l51.1-135.6h89.1l9.2,24.4l52.5,34.8h-5.6l-3.8,9l15.4,15.3l-14.6,36.4l-51.7-8.8l-11.6,30.8l4.9,7h56.5v1.5l-21.9,27.2
						l-10.7-13.3h-50.8l-28.1-35h-50.8v10.9h45.5l28.1,35h50.8l11.9,14.8h8.1l28.8-35.9v-16.1h-59.1l5.5-14.7L1571.4,2671.5z
						 M1516.9,2436.6c0.4-1.4,1.5-2.4,2.8-2.8c3.1-0.8,5.8,1.9,5,5c-0.4,1.3-1.4,2.4-2.8,2.8
						C1518.8,2442.4,1516.1,2439.7,1516.9,2436.6z M1448.7,2451.1c2.3,0.2,3.9,2.2,3.7,4.4s-2.2,3.9-4.4,3.7s-3.9-2.2-3.7-4.4
						C1444.4,2452.5,1446.4,2450.9,1448.7,2451.1z M1360.4,2441.6c-2.2,0-4-1.8-4-4c-0.1-2.1,1.7-4,4-4c2.2,0,4,1.8,4,4
						S1362.6,2441.6,1360.4,2441.6z"/>
				</g>
				<g>
					<path class="st2" d="M1571,2670.7l20.2-50.2l-11.7-11.6h11.6l2.6-8.7l-64.7-42.9l-10.5-27.9h-93.2l9.6-25.6h65.9l19.8-52.5
						c5.8,0,11.2-3.7,12.9-9.2c3.2-10-5.1-19.1-14.9-17.7c-6,0.8-10.8,5.8-11.4,11.9c-0.4,4.6,1.4,8.8,4.6,11.6l-17.5,46.4h-55.8
						l9.6-25.6c5.8,0,11.2-3.7,12.9-9.2c3.2-10-5.1-19.1-14.9-17.7c-6,0.8-10.8,5.8-11.4,11.9c-0.4,4.6,1.4,8.8,4.6,11.6l-10.9,28.9
						h-41.8l-17.5-46.4c3.2-2.8,5.1-7,4.6-11.6c-0.6-6-5.4-11-11.4-11.9c-9.8-1.4-18,7.7-14.9,17.7c1.8,5.6,7.1,9.2,12.9,9.2
						l19.8,52.5h44.8l-63.8,169.6h-0.1v40.6h64l67.9,84.5v156h9.5v-159.3l-72.8-90.6h-59.1v-29.4l51.3-136.2h90.1l9.3,24.6l54.2,36
						h-7.4l-3.4,8.1l15.4,15.3l-15,37.3l-51.7-8.8l-11.3,29.9l4.5,6.4h56.8v2.4l-22.6,28.1l-11-13.7h-50.8l-28.1-35H1401v9.5h45.1
						l28.1,35h50.8l11.9,14.8h7.4l28.4-35.4v-15.2h-59.4l6.1-16.2L1571,2670.7z M1516.9,2436.6c0.4-1.4,1.5-2.4,2.8-2.8
						c3.1-0.8,5.8,1.9,5,5c-0.4,1.3-1.4,2.4-2.8,2.8C1518.8,2442.4,1516.1,2439.7,1516.9,2436.6z M1448.7,2451.1
						c2.3,0.2,3.9,2.2,3.7,4.4s-2.2,3.9-4.4,3.7s-3.9-2.2-3.7-4.4C1444.4,2452.5,1446.4,2450.9,1448.7,2451.1z M1360.4,2441.6
						c-2.2,0-4-1.8-4-4c-0.1-2.1,1.7-4,4-4c2.2,0,4,1.8,4,4S1362.6,2441.6,1360.4,2441.6z"/>
				</g>
			</g>
			<g>
				<g>
					<polygon class="st2" points="1457.1,2928.8 1457.1,2816.1 1403.7,2749.6 1325.2,2749.6 1325.2,2664.4 1375.3,2531.4 
						1385.5,2535.3 1336.1,2666.3 1336.1,2738.7 1408.9,2738.7 1468,2812.4 1468,2928.8 					"/>
				</g>
				<g>
					<polygon class="st2" points="1467.3,2928.1 1467.3,2812.6 1408.6,2739.4 1335.4,2739.4 1335.4,2666.2 1384.6,2535.7 
						1375.7,2532.3 1325.9,2664.5 1325.9,2748.9 1404,2748.9 1457.8,2815.9 1457.8,2928.1 					"/>
				</g>
			</g>
			<g>
				<g>
					<polygon class="st2" points="1527.5,2902.5 1527.5,2781.1 1493,2738.3 1501.5,2731.5 1538.4,2777.3 1538.4,2902.5 					"/>
				</g>
				<g>
					<polygon class="st2" points="1494,2738.4 1528.2,2780.9 1528.2,2901.8 1537.7,2901.8 1537.7,2777.5 1501.4,2732.5 					"/>
				</g>
			</g>
			<g>
				<g>
					<path class="st2" d="M1490,2549.5l-38.4,9.6l-0.3,9.1l52.7,17.5l5.5-7.1L1490,2549.5z M1470.8,2564.8l16-4l8.1,12
						L1470.8,2564.8z"/>
				</g>
			</g>
		</g>
	</g>
</g>
<g>
	<g>
		<g transform="translate(578.555833, 495.441086)">
			<g>
				<path class="st2" d="M-300.9-109.1v-50h39.3c8.9,0,16.5,6.8,16.5,14.8c0,4-1.5,7.4-4.6,10.2c3,2.8,4.6,6.2,4.6,10.2
					c0,8.1-7.2,14.6-16.4,14.8l0,0C-261.5-109.1-300.9-109.1-300.9-109.1z M-261.6-118.3c3.5,0,6.3-2.5,6.3-5.7
					c0-3.1-2.8-5.6-6.3-5.6h-29.1v11.3H-261.6z M-261.6-138.7c3.5,0,6.3-2.5,6.3-5.7c0-3.1-2.8-5.6-6.3-5.6h-29.1v11.3H-261.6z"/>
				<path class="st2" d="M-261.6-110.3c8.5-0.2,15.2-6.3,15.2-13.6c0-4.1-1.7-7.5-5.2-10.2c3.4-2.7,5.2-6.1,5.2-10.2
					c0-7.6-7.2-13.6-15.2-13.6h-38v47.7L-261.6-110.3L-261.6-110.3z M-261.6-130.8c4.2,0,7.6,3.1,7.6,6.8c0,3.8-3.4,6.8-7.6,6.8
					H-292v-13.6H-261.6z M-292-151.2h30.4c4.2,0,7.6,3.1,7.6,6.8c0,3.8-3.4,6.8-7.6,6.8H-292V-151.2z"/>
			</g>
		</g>
	</g>
	<g>
		<g transform="translate(627.569868, 495.441086)">
			<g>
				<polygon class="st2" points="-289.9,-109.1 -289.9,-159.2 -234.2,-159.2 -234.2,-150 -279.7,-150 -279.7,-138.7 -241.8,-138.7 
					-241.8,-129.6 -279.7,-129.6 -279.7,-118.3 -234.2,-118.3 -234.2,-109.1 				"/>
				<path class="st2" d="M-281-151.2h45.6v-6.8h-53.1v47.7h53.1v-6.8H-281v-13.6h38v-6.8h-38V-151.2z"/>
			</g>
		</g>
	</g>
	<g>
		<g transform="translate(675.963484, 495.441086)">
			<g>
				<path class="st2" d="M-263.4-109.1c-9,0-16.2-6.5-16.5-14.8v-1.2h10.2v1.2c0,3.1,2.8,5.7,6.3,5.7h22.8c3.5,0,6.3-2.5,6.3-5.7
					c0-3.1-2.8-5.6-6.3-5.6h-22.8c-9.1,0-16.5-6.6-16.5-14.8c0-8,7.6-14.8,16.5-14.8h22.8c8.8,0,16.2,6.6,16.5,14.8v1.2h-10.2v-1.2
					c0-3.1-2.8-5.6-6.3-5.6h-22.8c-3.5,0-6.3,2.5-6.3,5.6s2.8,5.7,6.3,5.7h22.8c8.9,0,16.5,6.8,16.5,14.8s-7.5,14.8-16.5,14.8
					L-263.4-109.1L-263.4-109.1z"/>
				<path class="st2" d="M-225.4-123.9c0-7.6-7.2-13.6-15.2-13.6h-22.8c-4.2,0-7.6-3.1-7.6-6.8s3.4-6.8,7.6-6.8h22.8
					c4.2,0,7.6,3.1,7.6,6.8h7.6c-0.2-7.6-7.1-13.6-15.2-13.6h-22.8c-8.5,0-15.2,6.4-15.2,13.6c0,7.7,7.1,13.6,15.2,13.6h22.8
					c4.2,0,7.6,3.1,7.6,6.8c0,3.8-3.4,6.8-7.6,6.8h-22.8c-4.2,0-7.6-3.1-7.6-6.8h-7.6c0.2,7.7,6.9,13.6,15.2,13.6h22.8
					C-232.1-110.3-225.4-116.7-225.4-123.9z"/>
			</g>
		</g>
	</g>
	<g>
		<g transform="translate(724.357101, 495.441086)">
			<g>
				<polygon class="st2" points="-249.3,-109.1 -249.3,-150 -272.1,-150 -272.1,-159.2 -216.3,-159.2 -216.3,-150 -239.1,-150 
					-239.1,-109.1 				"/>
				<path class="st2" d="M-217.6-151.2v-6.8h-53.1v6.8h22.8v40.9h7.6v-40.9H-217.6z"/>
			</g>
		</g>
	</g>
	<g>
		<g transform="translate(578.555833, 576.241334)">
			<g>
				<path class="st2" d="M-285.2-101.2c-9.1,0-16.5-6.6-16.5-14.8v-20.4c0-8.1,7.2-14.6,16.5-14.8h22.8c8.8,0,16.2,6.6,16.5,14.8
					v1.2h-10.2v-1.2c0-3.1-2.8-5.6-6.3-5.6h-22.8c-3.5,0-6.3,2.5-6.3,5.6v20.4c0,3.1,2.8,5.7,6.3,5.7h22.8c3.5,0,6.3-2.5,6.3-5.7
					v-1.2h10.2v1.2c0,8-7.5,14.8-16.5,14.8C-262.4-101.2-285.2-101.2-285.2-101.2z"/>
				<path class="st2" d="M-285.2-150c-8.5,0.2-15.2,6.3-15.2,13.6v20.4c0,7.7,7.1,13.6,15.2,13.6h22.8c8.5,0,15.2-6.4,15.2-13.6
					h-7.6c0,3.8-3.4,6.8-7.6,6.8h-22.8c-4.2,0-7.6-3.1-7.6-6.8v-20.4c0-3.7,3.4-6.8,7.6-6.8h22.8c4.2,0,7.6,3.1,7.6,6.8h7.6
					c-0.2-7.6-7.1-13.6-15.2-13.6H-285.2z"/>
			</g>
		</g>
	</g>
	<g>
		<g transform="translate(626.329011, 576.241334)">
			<g>
				<path class="st2" d="M-274.5-101.2c-9.1,0-16.5-6.6-16.5-14.8v-20.4c0-8.2,7.4-14.8,16.5-14.8h22.8c8.9,0,16.5,6.8,16.5,14.8
					v20.4c0,8.2-7.4,14.8-16.5,14.8C-251.7-101.2-274.5-101.2-274.5-101.2z M-274.5-142.1c-3.5,0-6.3,2.5-6.3,5.6v20.4
					c0,3.1,2.8,5.7,6.3,5.7h22.8c3.5,0,6.3-2.5,6.3-5.7v-20.4c0-3.1-2.8-5.6-6.3-5.6H-274.5z"/>
				<path class="st2" d="M-244.1-116c0,3.8-3.4,6.8-7.6,6.8h-22.8c-4.2,0-7.6-3.1-7.6-6.8v-20.4c0-3.7,3.4-6.8,7.6-6.8h22.8
					c4.2,0,7.6,3.1,7.6,6.8L-244.1-116L-244.1-116z M-236.5-136.4c0-7.4-7.1-13.6-15.2-13.6h-22.8c-8.4,0-15.2,6.1-15.2,13.6v20.4
					c0,7.6,6.8,13.6,15.2,13.6h22.8c8.4,0,15.2-6.1,15.2-13.6V-136.4z"/>
			</g>
		</g>
	</g>
	<g>
		<g transform="translate(674.722627, 576.241334)">
			<g>
				<path class="st2" d="M-279.4-101.2v-50h39.3c8.8,0,16.2,6.6,16.5,14.8v20.5c0,8-7.5,14.8-16.5,14.8h-39.3V-101.2z M-240.1-110.3
					c3.5,0,6.3-2.5,6.3-5.7v-20.4c0-3.1-2.8-5.6-6.3-5.6h-29.1v31.7H-240.1z"/>
				<path class="st2" d="M-232.5-116c0,3.8-3.4,6.8-7.6,6.8h-30.4v-34.1h30.4c4.2,0,7.6,3.1,7.6,6.8V-116z M-224.9-136.4
					c-0.2-7.6-7.1-13.6-15.2-13.6h-38v47.7h38c8.5,0,15.2-6.4,15.2-13.6L-224.9-136.4L-224.9-136.4z"/>
			</g>
		</g>
	</g>
	<g>
		<g transform="translate(723.736662, 576.241334)">
			<g>
				<rect x="-268.4" y="-151.2" class="st2" width="10.2" height="50"/>
				<path class="st2" d="M-267.1-102.3h7.6V-150h-7.6V-102.3z"/>
			</g>
		</g>
	</g>
	<g>
		<g transform="translate(736.145289, 576.241334)">
			<g>
				<polygon class="st2" points="-219.3,-101.2 -255.4,-136 -255.4,-101.2 -265.6,-101.2 -265.6,-151.2 -256.2,-151.2 
					-220.1,-116.9 -220.1,-151.2 -209.9,-151.2 -209.9,-101.2 				"/>
				<path class="st2" d="M-211.2-150h-7.6v36.1l-38-36.1h-7.6v47.7h7.6V-139l38,36.7h7.6L-211.2-150L-211.2-150z"/>
			</g>
		</g>
	</g>
	<g>
		<g transform="translate(785.779763, 576.241334)">
			<g>
				<path class="st2" d="M-238.8-101.2c-9.1,0-16.5-6.6-16.5-14.8v-20.4c0-8,7.6-14.8,16.5-14.8h22.8c8.8,0,16.2,6.6,16.5,14.8v1.2
					h-10.2v-1.2c0-3.1-2.8-5.6-6.3-5.6h-22.8c-3.5,0-6.3,2.5-6.3,5.6v20.4c0,3.1,2.8,5.7,6.3,5.7h22.8c3.5,0,6.3-2.5,6.3-5.7v-5.6
					h-22.8v-9.2h33v14.8c0,8-7.5,14.8-16.5,14.8L-238.8-101.2L-238.8-101.2z"/>
				<path class="st2" d="M-231.2-122.8h22.8v6.8c0,3.8-3.4,6.8-7.6,6.8h-22.8c-4.2,0-7.6-3.1-7.6-6.8v-20.4c0-3.7,3.4-6.8,7.6-6.8
					h22.8c4.2,0,7.6,3.1,7.6,6.8h7.6C-201-144-207.9-150-216-150h-22.8c-8.5,0-15.2,6.4-15.2,13.6v20.4c0,7.7,7.1,13.6,15.2,13.6
					h22.8c8.5,0,15.2-6.4,15.2-13.6v-13.6h-30.4V-122.8z"/>
			</g>
		</g>
	</g>
	<g>
		<g transform="translate(578.555833, 657.041582)">
			<g>
				<polygon class="st2" points="-247.7,-93.2 -247.7,-126.1 -269.2,-98.3 -290.7,-126.1 -290.7,-93.2 -300.9,-93.2 -300.9,-143.3 
					-291.3,-143.3 -269.2,-114.6 -247.1,-143.3 -237.5,-143.3 -237.5,-93.2 				"/>
				<path class="st2" d="M-269.2-100.4l22.8-29.5v35.5h7.6v-47.7h-7.6l-22.8,29.5l-22.8-29.5h-7.6v47.7h7.6v-35.5L-269.2-100.4z"/>
			</g>
		</g>
	</g>
	<g>
		<g transform="translate(634.394612, 657.041582)">
			<g>
				<path class="st2" d="M-242.8-93.2v-13.6h-35.4v13.6h-10.2v-35.2c0-8,7.6-14.8,16.5-14.8h22.8c8.8,0,16.2,6.6,16.5,14.8v35.3
					h-10.2L-242.8-93.2L-242.8-93.2z M-242.8-116v-12.5c0-3.1-2.8-5.6-6.3-5.6h-22.8c-3.5,0-6.3,2.5-6.3,5.6v12.5H-242.8z"/>
				<path class="st2" d="M-249.1-135.3c4.2,0,7.6,3.1,7.6,6.8v13.6h-38v-13.6c0-3.7,3.4-6.8,7.6-6.8H-249.1z M-233.9-128.5
					c-0.2-7.6-7.1-13.6-15.2-13.6h-22.8c-8.5,0-15.2,6.4-15.2,13.6v34.1h7.6V-108h38v13.6h7.6V-128.5z"/>
			</g>
		</g>
	</g>
	<g>
		<g transform="translate(684.029085, 657.041582)">
			<g>
				<path class="st2" d="M-228.8-93.2l-15.2-13.6h-23.1v13.6h-10.2v-50h39.3c8.9,0,16.5,6.8,16.5,14.8v6.8c0,5.7-3.8,10.9-9.5,13.4
					l9.5,8.6v6.5h-7.3L-228.8-93.2L-228.8-93.2z M-238-116c3.5,0,6.3-2.5,6.3-5.6v-6.8c0-3.1-2.8-5.6-6.3-5.6h-29.1v18.1L-238-116
					L-238-116z"/>
				<path class="st2" d="M-230.4-121.6c0,3.7-3.4,6.8-7.6,6.8h-30.4v-20.4h30.4c4.2,0,7.6,3.1,7.6,6.8V-121.6z M-222.8-94.4v-4.8
					l-10.6-9.5c6.3-1.9,10.6-7.2,10.6-13v-6.8c0-7.6-7.2-13.6-15.2-13.6h-38v47.7h7.6V-108h25l15.2,13.6H-222.8z"/>
			</g>
		</g>
	</g>
	<g>
		<g transform="translate(733.04312, 657.041582)">
			<g>
				<path class="st2" d="M-220.8-93.2v-13.6h-35.4v13.6h-10.2v-35.2c0-8,7.6-14.8,16.5-14.8h22.8c8.8,0,16.2,6.6,16.5,14.8v35.3
					h-10.2L-220.8-93.2L-220.8-93.2z M-220.8-116v-12.5c0-3.1-2.8-5.6-6.3-5.6h-22.8c-3.5,0-6.3,2.5-6.3,5.6v12.5H-220.8z"/>
				<path class="st2" d="M-227-135.3c4.2,0,7.6,3.1,7.6,6.8v13.6h-38v-13.6c0-3.7,3.4-6.8,7.6-6.8H-227z M-211.9-128.5
					c-0.2-7.6-7.1-13.6-15.2-13.6h-22.8c-8.5,0-15.2,6.4-15.2,13.6v34.1h7.6V-108h38v13.6h7.6V-128.5z"/>
			</g>
		</g>
	</g>
	<g>
		<g transform="translate(782.677594, 657.041582)">
			<g>
				<polygon class="st2" points="-236.2,-93.2 -236.2,-134.1 -259,-134.1 -259,-143.3 -203.3,-143.3 -203.3,-134.1 -226,-134.1 
					-226,-93.2 				"/>
				<path class="st2" d="M-204.6-135.3v-6.8h-53.1v6.8h22.8v40.9h7.6v-40.9H-204.6z"/>
			</g>
		</g>
	</g>
	<g>
		<g transform="translate(826.107763, 657.041582)">
			<g>
				<polygon class="st2" points="-199.9,-93.2 -199.9,-113.7 -235.3,-113.7 -235.3,-93.2 -245.5,-93.2 -245.5,-143.3 -235.3,-143.3 
					-235.3,-122.8 -199.9,-122.8 -199.9,-143.3 -189.7,-143.3 -189.7,-93.2 				"/>
				<path class="st2" d="M-236.6-142.1h-7.6v47.7h7.6v-20.4h38v20.4h7.6v-47.7h-7.6v20.4h-38V-142.1z"/>
			</g>
		</g>
	</g>
	<g>
		<g transform="translate(875.742237, 657.041582)">
			<g>
				<path class="st2" d="M-218.7-93.2c-9.1,0-16.5-6.6-16.5-14.8v-20.4c0-8.2,7.4-14.8,16.5-14.8h22.8c8.9,0,16.5,6.8,16.5,14.8
					v20.4c0,8.2-7.4,14.8-16.5,14.8C-195.9-93.2-218.7-93.2-218.7-93.2z M-218.7-134.1c-3.5,0-6.3,2.5-6.3,5.6v20.4
					c0,3.1,2.8,5.7,6.3,5.7h22.8c3.5,0,6.3-2.5,6.3-5.7v-20.4c0-3.1-2.8-5.6-6.3-5.6H-218.7z"/>
				<path class="st2" d="M-188.3-108c0,3.8-3.4,6.8-7.6,6.8h-22.8c-4.2,0-7.6-3.1-7.6-6.8v-20.4c0-3.7,3.4-6.8,7.6-6.8h22.8
					c4.2,0,7.6,3.1,7.6,6.8V-108z M-180.7-128.5c0-7.4-7.1-13.6-15.2-13.6h-22.8c-8.4,0-15.2,6.1-15.2,13.6v20.4
					c0,7.6,6.8,13.6,15.2,13.6h22.8c8.4,0,15.2-6.1,15.2-13.6V-128.5z"/>
			</g>
		</g>
	</g>
	<g>
		<g transform="translate(924.135835, 657.041582)">
			<g>
				<polygon class="st2" points="-177.3,-93.2 -213.4,-128.1 -213.4,-93.2 -223.6,-93.2 -223.6,-143.3 -214.1,-143.3 -178,-108.9 
					-178,-143.3 -167.8,-143.3 -167.8,-93.2 				"/>
				<path class="st2" d="M-169.1-142.1h-7.6v36.1l-38-36.1h-7.6v47.7h7.6V-131l38,36.7h7.6V-142.1z"/>
			</g>
		</g>
	</g>
</g>
</svg>
