<?xml version="1.0" standalone="no"?>
<!DOCTYPE svg PUBLIC "-//W3C//DTD SVG 20010904//EN"
 "http://www.w3.org/TR/2001/REC-SVG-20010904/DTD/svg10.dtd">
<svg version="1.0" xmlns="http://www.w3.org/2000/svg"
 width="1200.000000pt" height="1200.000000pt" viewBox="0 0 1200.000000 1200.000000"
 preserveAspectRatio="xMidYMid meet">

<g transform="translate(0.000000,1200.000000) scale(0.100000,-0.100000)"
fill="#000000" stroke="none">
<path d="M4430 7200 l0 -1570 1570 0 1570 0 0 1570 0 1570 -1570 0 -1570 0 0
-1570z m3070 0 l0 -1500 -1500 0 -1500 0 0 1500 0 1500 1500 0 1500 0 0 -1500z"/>
<path d="M5686 8120 c-88 -27 -113 -138 -44 -202 25 -23 39 -28 80 -28 44 0
54 4 84 34 27 27 34 42 34 73 0 87 -75 147 -154 123z"/>
<path d="M6139 7367 c-334 -331 -662 -660 -730 -730 l-123 -128 25 -24 24 -25
730 730 730 730 -25 24 -25 25 -606 -602z"/>
<path d="M5401 7864 c-66 -17 -174 -68 -191 -89 -12 -14 -2 -27 65 -95 l79
-79 105 -3 105 -3 47 -104 c49 -111 74 -141 118 -141 28 0 63 29 75 64 7 20
-162 416 -191 449 -20 22 -132 23 -212 1z"/>
<path d="M5074 7506 c-49 -22 -59 -74 -23 -120 l20 -26 178 0 c139 0 181 3
198 15 44 31 37 111 -13 134 -37 16 -320 14 -360 -3z"/>
<path d="M6387 6904 c-11 -11 -8 -24 6 -24 36 -1 37 -10 22 -224 -8 -115 -20
-215 -26 -222 -6 -7 -19 -16 -30 -19 -10 -4 -19 -13 -19 -21 0 -11 18 -14 85
-14 69 0 85 3 85 15 0 9 -9 15 -24 15 -14 0 -28 5 -31 10 -8 13 15 382 25 393
4 4 42 -92 84 -213 43 -121 83 -220 90 -220 6 0 52 102 101 228 l90 227 6
-115 c4 -63 7 -155 8 -203 l1 -89 -30 -11 c-16 -6 -30 -17 -30 -24 0 -10 26
-13 105 -13 87 0 105 3 105 15 0 9 -9 15 -22 15 -13 0 -28 4 -34 8 -7 4 -16
89 -24 221 l-13 214 21 18 c39 31 27 40 -49 37 l-71 -3 -67 -175 c-37 -96 -71
-184 -75 -195 -6 -15 -25 29 -76 175 l-67 195 -70 3 c-38 1 -72 0 -76 -4z"/>
<path d="M9189 4481 c-34 -55 -61 -103 -61 -108 2 -27 43 -5 127 69 52 46 95
86 95 91 0 11 -62 47 -82 47 -10 0 -40 -37 -79 -99z"/>
<path d="M7015 4553 c-68 -15 -113 -36 -118 -53 -5 -18 0 -20 39 -20 l44 0 0
-361 c0 -235 -4 -376 -11 -405 -15 -60 -3 -71 42 -41 l34 23 40 -20 c52 -27
181 -28 238 -3 108 47 168 135 175 257 6 111 -16 182 -76 240 -47 45 -102 70
-155 70 -49 0 -108 -31 -138 -73 l-29 -40 0 216 0 217 -32 -1 c-18 -1 -42 -3
-53 -6z m282 -403 c48 -29 66 -72 71 -171 10 -200 -76 -300 -226 -260 l-42 12
0 157 c0 133 3 163 20 199 34 75 112 103 177 63z"/>
<path d="M8275 4553 c-68 -15 -113 -36 -118 -53 -5 -18 0 -20 39 -20 l44 0 0
-361 c0 -235 -4 -376 -11 -405 -15 -60 -3 -71 42 -41 l34 23 40 -20 c52 -27
181 -28 238 -3 108 47 168 135 175 257 6 111 -16 182 -76 240 -47 45 -102 70
-155 70 -49 0 -108 -31 -138 -73 l-29 -40 0 216 0 217 -32 -1 c-18 -1 -42 -3
-53 -6z m282 -403 c48 -29 66 -72 71 -171 10 -200 -76 -300 -226 -260 l-42 12
0 157 c0 133 3 163 20 199 34 75 112 103 177 63z"/>
<path d="M2951 4441 c-21 -6 -36 -42 -135 -336 -62 -182 -117 -340 -124 -351
-6 -12 -27 -29 -47 -38 -22 -11 -35 -24 -35 -36 0 -19 8 -20 120 -20 66 0 120
4 120 9 0 5 3 16 6 25 5 13 -1 16 -26 16 -17 0 -40 4 -50 10 -17 9 -17 14 13
105 l31 95 131 0 131 0 27 -83 c15 -46 27 -88 27 -94 0 -6 -19 -18 -42 -25
-31 -11 -44 -21 -46 -36 -3 -22 -2 -22 146 -22 127 0 151 2 156 16 10 27 7 34
-17 34 -54 0 -61 15 -182 385 l-116 355 -32 -1 c-18 -1 -43 -4 -56 -8z m73
-323 l44 -138 -113 0 -113 0 44 138 c24 75 49 155 55 177 l12 40 14 -40 c7
-22 33 -102 57 -177z"/>
<path d="M4381 4441 c-21 -6 -36 -42 -135 -336 -62 -182 -117 -340 -124 -351
-6 -12 -27 -29 -47 -38 -22 -11 -35 -24 -35 -36 0 -19 8 -20 120 -20 66 0 120
4 120 9 0 5 3 16 6 25 5 13 -1 16 -26 16 -17 0 -40 4 -50 10 -17 9 -17 14 13
105 l31 95 131 0 131 0 27 -83 c15 -46 27 -88 27 -94 0 -6 -19 -18 -42 -25
-31 -11 -44 -21 -46 -36 -3 -22 -2 -22 146 -22 127 0 151 2 156 16 10 27 7 34
-17 34 -54 0 -61 15 -182 385 l-116 355 -32 -1 c-18 -1 -43 -4 -56 -8z m73
-323 l44 -138 -113 0 -113 0 44 138 c24 75 49 155 55 177 l12 40 14 -40 c7
-22 33 -102 57 -177z"/>
<path d="M1656 4424 c-10 -27 -7 -32 29 -38 22 -5 35 -13 35 -23 0 -8 -9 -149
-20 -312 -20 -293 -21 -296 -46 -318 -14 -13 -34 -23 -45 -23 -14 0 -19 -7
-19 -25 l0 -25 125 0 c125 0 125 0 125 24 0 20 -6 24 -41 29 -22 3 -43 7 -45
10 -2 2 5 126 16 276 11 150 20 287 20 304 0 16 2 28 5 25 3 -3 59 -153 124
-334 95 -262 122 -330 137 -332 16 -2 39 48 149 326 72 181 131 328 133 327 2
-2 10 -128 17 -280 10 -186 11 -283 5 -296 -6 -10 -26 -21 -45 -25 -28 -5 -35
-11 -35 -30 l0 -24 150 0 150 0 0 24 c0 20 -6 24 -41 29 -22 3 -43 7 -45 10
-8 8 -46 609 -40 633 4 14 16 26 31 30 18 4 25 13 25 30 0 24 -1 24 -104 24
l-103 0 -108 -277 c-60 -153 -111 -281 -114 -285 -4 -4 -51 121 -106 277
l-100 285 -106 0 c-88 0 -108 -3 -113 -16z"/>
<path d="M3406 4424 c-11 -27 -7 -31 39 -43 l45 -11 0 -315 c0 -313 0 -314
-22 -329 -12 -9 -30 -16 -39 -16 -20 0 -33 -39 -15 -46 6 -2 79 -3 161 -2 147
3 150 3 153 26 3 18 -1 22 -26 22 -16 0 -43 5 -61 11 l-31 11 0 128 0 127 109
5 c92 4 117 8 165 32 203 99 162 357 -65 405 -28 6 -130 11 -228 11 -154 0
-180 -2 -185 -16z m394 -66 c54 -28 80 -74 80 -143 0 -109 -67 -165 -197 -165
l-73 0 0 165 0 165 73 0 c56 0 83 -5 117 -22z"/>
<path d="M5508 4415 c-4 -20 -1 -25 16 -25 11 0 31 -3 44 -6 l22 -6 -2 -322
-3 -321 -37 -18 c-24 -12 -38 -26 -38 -38 0 -18 9 -19 139 -19 117 0 140 2
145 16 10 27 7 34 -16 34 -13 0 -33 3 -45 6 -22 6 -23 10 -23 133 0 121 1 129
23 149 l24 22 19 -21 c10 -11 69 -91 129 -178 l111 -156 89 -3 c64 -2 91 1 97
10 14 22 9 38 -12 38 -47 0 -80 33 -189 189 -62 89 -125 170 -139 181 l-26 21
125 125 c120 121 177 164 217 164 13 0 21 9 24 25 l5 25 -133 0 -134 0 0 -25
c0 -19 5 -25 23 -25 13 0 31 -6 40 -12 15 -12 0 -30 -138 -168 l-155 -155 0
148 c0 134 2 149 20 167 11 11 29 20 40 20 15 0 20 7 20 25 l0 25 -139 0 -139
0 -4 -25z"/>
<path d="M9063 4310 c-52 -12 -122 -59 -148 -98 -57 -86 -72 -217 -38 -323 70
-219 394 -242 500 -35 35 68 43 195 19 281 -39 134 -185 211 -333 175z m138
-73 c19 -12 42 -39 52 -59 39 -79 46 -245 13 -322 -7 -17 -26 -42 -41 -56 -22
-21 -37 -25 -87 -25 -56 0 -62 2 -93 37 -44 48 -58 102 -59 218 0 98 15 152
52 193 38 43 111 49 163 14z"/>
<path d="M6537 4226 c-97 -36 -166 -109 -187 -197 -17 -71 -8 -184 18 -235 48
-94 161 -153 269 -140 85 10 202 78 190 110 -6 14 -11 13 -54 -6 -67 -30 -189
-32 -230 -2 -38 27 -71 97 -79 167 l-7 57 186 0 187 0 6 26 c17 68 -23 157
-89 198 -56 34 -150 44 -210 22z m117 -56 c31 -11 52 -44 61 -92 l7 -38 -127
0 -127 0 6 26 c22 85 104 133 180 104z"/>
<path d="M7768 4227 c-47 -14 -128 -61 -128 -75 0 -4 4 -13 9 -20 7 -11 17
-11 61 2 134 40 205 6 198 -94 l-3 -44 -85 -18 c-150 -32 -208 -75 -217 -160
-16 -144 167 -222 286 -122 l28 23 11 -24 c13 -28 77 -51 114 -42 33 9 78 45
78 63 0 9 -11 14 -34 14 -19 0 -38 6 -43 13 -4 6 -10 98 -13 204 -5 208 -8
218 -72 266 -32 24 -128 31 -190 14z m142 -371 l0 -94 -34 -16 c-46 -22 -88
-20 -120 5 -21 17 -26 29 -26 66 0 37 5 50 30 73 23 22 103 55 143 59 4 1 7
-41 7 -93z"/>
<path d="M9500 4211 c0 -13 9 -21 29 -26 27 -6 33 -17 122 -266 120 -333 111
-329 219 -77 42 98 78 180 81 182 3 3 36 -78 74 -180 96 -253 88 -255 216 61
53 132 102 248 108 257 6 10 20 18 30 18 17 0 31 18 31 41 0 5 -49 9 -110 9
l-110 0 0 -25 c0 -21 5 -25 30 -25 40 0 51 -23 35 -74 -24 -77 -96 -271 -103
-278 -4 -4 -38 80 -76 187 -62 174 -71 195 -91 195 -23 0 -44 -46 -156 -343
l-22 -59 -54 159 c-29 87 -52 167 -51 178 2 12 15 24 33 29 39 13 38 11 30 35
-6 20 -14 21 -136 21 -121 0 -129 -1 -129 -19z"/>
<path d="M4926 3789 c-36 -28 -36 -80 0 -108 15 -12 34 -21 44 -21 34 0 70 39
70 75 0 36 -36 75 -70 75 -10 0 -29 -9 -44 -21z"/>
</g>
</svg>
